<?xml version="1.0" encoding="utf-8"?>
<svg fill="rgba(255, 255, 255, 0.7)" version="1.1" xmlns="http://www.w3.org/2000/svg" xmlns:xlink="http://www.w3.org/1999/xlink" x="0px" y="0px" viewBox="0 0 48 48" xml:space="preserve">
    <path d="M28.4,14.6c-0.8-0.8-2.1-0.8-2.8,0l-6.4,6.6c-1.6,1.6-1.6,4.1,0,5.6l6.4,6.6C26,33.8,26.5,34,27,34c0.5,0,1-0.2,1.4-0.6 c0.8-0.8,0.8-2,0-2.8L22,24l6.4-6.6C29.2,16.6,29.2,15.3,28.4,14.6z M45.5,29c0.1,0,0.2,0,0.3,0c1,0,1.8-0.7,2-1.7 c0.2-1.1,0.2-2.2,0.2-3.3s-0.1-2.2-0.2-3.3c-0.2-1.1-1.2-1.9-2.3-1.7c-1.1,0.2-1.9,1.2-1.7,2.3c0.1,0.9,0.2,1.8,0.2,2.7 s-0.1,1.8-0.2,2.7C43.7,27.8,44.4,28.8,45.5,29z M24,0C10.8,0,0,10.8,0,24s10.8,24,24,24c9.1,0,17.3-5,21.4-13.1 c0.5-1,0.1-2.2-0.9-2.7c-1-0.5-2.2-0.1-2.7,0.9C38.4,39.8,31.6,44,24,44C13,44,4,35,4,24S13,4,24,4c7.6,0,14.4,4.2,17.8,10.9 c0.5,1,1.7,1.4,2.7,0.9c1-0.5,1.4-1.7,0.9-2.7C41.3,5,33.1,0,24,0z"/>
</svg>